<mxfile host="Electron" agent="Mozilla/5.0 (Windows NT 10.0; Win64; x64) AppleWebKit/537.36 (KHTML, like Gecko) draw.io/26.2.2 Chrome/134.0.6998.178 Electron/35.1.2 Safari/537.36" version="26.2.2">
  <diagram name="PÃ¡gina-1" id="s4vBF2i910yvmQE--Rir">
    <mxGraphModel dx="1658" dy="1263" grid="1" gridSize="10" guides="1" tooltips="1" connect="1" arrows="1" fold="1" page="1" pageScale="1" pageWidth="827" pageHeight="1169" math="0" shadow="0">
      <root>
        <mxCell id="0" />
        <mxCell id="1" parent="0" />
        <mxCell id="2ji4HdF5ncCgNXRxIzyP-3" value="&lt;div style=&quot;color: rgb(204, 204, 204); background-color: rgb(31, 31, 31); font-family: Consolas, &amp;quot;Courier New&amp;quot;, monospace; font-size: 14px; line-height: 19px; white-space: pre;&quot;&gt;&lt;span style=&quot;color: #4ec9b0;&quot;&gt;Ballot.sol&lt;/span&gt;&lt;/div&gt;" style="rounded=1;whiteSpace=wrap;html=1;verticalAlign=middle;fontSize=15;" vertex="1" parent="1">
          <mxGeometry x="1110" y="250" width="180" height="90" as="geometry" />
        </mxCell>
        <mxCell id="2ji4HdF5ncCgNXRxIzyP-12" style="edgeStyle=orthogonalEdgeStyle;rounded=0;orthogonalLoop=1;jettySize=auto;html=1;exitX=1;exitY=0.5;exitDx=0;exitDy=0;entryX=0;entryY=0.5;entryDx=0;entryDy=0;dashed=1;" edge="1" parent="1" source="2ji4HdF5ncCgNXRxIzyP-4" target="2ji4HdF5ncCgNXRxIzyP-3">
          <mxGeometry relative="1" as="geometry" />
        </mxCell>
        <mxCell id="2ji4HdF5ncCgNXRxIzyP-15" value="create" style="edgeLabel;html=1;align=center;verticalAlign=middle;resizable=0;points=[];" vertex="1" connectable="0" parent="2ji4HdF5ncCgNXRxIzyP-12">
          <mxGeometry x="-0.1029" relative="1" as="geometry">
            <mxPoint as="offset" />
          </mxGeometry>
        </mxCell>
        <mxCell id="2ji4HdF5ncCgNXRxIzyP-13" style="edgeStyle=orthogonalEdgeStyle;rounded=0;orthogonalLoop=1;jettySize=auto;html=1;exitX=0;exitY=0.5;exitDx=0;exitDy=0;entryX=1;entryY=0.5;entryDx=0;entryDy=0;" edge="1" parent="1" source="2ji4HdF5ncCgNXRxIzyP-4" target="2ji4HdF5ncCgNXRxIzyP-5">
          <mxGeometry relative="1" as="geometry" />
        </mxCell>
        <mxCell id="2ji4HdF5ncCgNXRxIzyP-14" value="depends" style="edgeLabel;html=1;align=center;verticalAlign=middle;resizable=0;points=[];" vertex="1" connectable="0" parent="2ji4HdF5ncCgNXRxIzyP-13">
          <mxGeometry x="-0.133" relative="1" as="geometry">
            <mxPoint as="offset" />
          </mxGeometry>
        </mxCell>
        <mxCell id="2ji4HdF5ncCgNXRxIzyP-4" value="&lt;div style=&quot;color: rgb(204, 204, 204); background-color: rgb(31, 31, 31); font-family: Consolas, &amp;quot;Courier New&amp;quot;, monospace; font-size: 14px; line-height: 19px; white-space: pre;&quot;&gt;&lt;span style=&quot;color: #4ec9b0;&quot;&gt;BallotFactory.sol&lt;/span&gt;&lt;/div&gt;" style="rounded=1;whiteSpace=wrap;html=1;verticalAlign=middle;fontSize=15;" vertex="1" parent="1">
          <mxGeometry x="730" y="250" width="180" height="90" as="geometry" />
        </mxCell>
        <mxCell id="2ji4HdF5ncCgNXRxIzyP-5" value="&lt;div style=&quot;color: rgb(204, 204, 204); background-color: rgb(31, 31, 31); font-family: Consolas, &amp;quot;Courier New&amp;quot;, monospace; font-size: 14px; line-height: 19px; white-space: pre;&quot;&gt;&lt;span style=&quot;color: #4ec9b0;&quot;&gt;IVoterRegistry.sol&lt;/span&gt;&lt;/div&gt;" style="rounded=1;whiteSpace=wrap;html=1;verticalAlign=middle;fontSize=15;dashed=1;dashPattern=8 8;" vertex="1" parent="1">
          <mxGeometry x="320" y="250" width="180" height="90" as="geometry" />
        </mxCell>
        <mxCell id="2ji4HdF5ncCgNXRxIzyP-9" style="edgeStyle=orthogonalEdgeStyle;rounded=0;orthogonalLoop=1;jettySize=auto;html=1;exitX=0.5;exitY=0;exitDx=0;exitDy=0;entryX=0.5;entryY=1;entryDx=0;entryDy=0;endArrow=block;endFill=0;dashed=1;dashPattern=8 8;" edge="1" parent="1" source="2ji4HdF5ncCgNXRxIzyP-6" target="2ji4HdF5ncCgNXRxIzyP-5">
          <mxGeometry relative="1" as="geometry" />
        </mxCell>
        <mxCell id="2ji4HdF5ncCgNXRxIzyP-16" value="is" style="edgeLabel;html=1;align=center;verticalAlign=middle;resizable=0;points=[];" vertex="1" connectable="0" parent="2ji4HdF5ncCgNXRxIzyP-9">
          <mxGeometry x="0.1515" y="-1" relative="1" as="geometry">
            <mxPoint x="-1" as="offset" />
          </mxGeometry>
        </mxCell>
        <mxCell id="2ji4HdF5ncCgNXRxIzyP-6" value="&lt;div style=&quot;color: rgb(204, 204, 204); background-color: rgb(31, 31, 31); font-family: Consolas, &amp;quot;Courier New&amp;quot;, monospace; font-size: 14px; line-height: 19px; white-space: pre;&quot;&gt;&lt;div style=&quot;line-height: 19px;&quot;&gt;&lt;span style=&quot;color: #4ec9b0;&quot;&gt;AddressBasedVoterRegistry.sol&lt;/span&gt;&lt;/div&gt;&lt;/div&gt;" style="rounded=1;whiteSpace=wrap;html=1;verticalAlign=middle;fontSize=15;" vertex="1" parent="1">
          <mxGeometry x="130" y="460" width="230" height="90" as="geometry" />
        </mxCell>
        <mxCell id="2ji4HdF5ncCgNXRxIzyP-10" style="edgeStyle=orthogonalEdgeStyle;rounded=0;orthogonalLoop=1;jettySize=auto;html=1;exitX=0.5;exitY=0;exitDx=0;exitDy=0;endArrow=block;endFill=0;dashed=1;dashPattern=8 8;" edge="1" parent="1" source="2ji4HdF5ncCgNXRxIzyP-7">
          <mxGeometry relative="1" as="geometry">
            <mxPoint x="410" y="340" as="targetPoint" />
          </mxGeometry>
        </mxCell>
        <mxCell id="2ji4HdF5ncCgNXRxIzyP-20" value="is" style="edgeLabel;html=1;align=center;verticalAlign=middle;resizable=0;points=[];" vertex="1" connectable="0" parent="2ji4HdF5ncCgNXRxIzyP-10">
          <mxGeometry x="-0.0219" relative="1" as="geometry">
            <mxPoint as="offset" />
          </mxGeometry>
        </mxCell>
        <mxCell id="2ji4HdF5ncCgNXRxIzyP-7" value="&lt;div style=&quot;color: rgb(204, 204, 204); background-color: rgb(31, 31, 31); font-family: Consolas, &amp;quot;Courier New&amp;quot;, monospace; line-height: 19px; white-space: pre;&quot;&gt;&lt;div style=&quot;line-height: 19px;&quot;&gt;&lt;span style=&quot;color: #4ec9b0;&quot;&gt;TokenBasedVoterRegistry.sol&lt;/span&gt;&lt;/div&gt;&lt;/div&gt;" style="rounded=1;whiteSpace=wrap;html=1;verticalAlign=middle;fontSize=14;" vertex="1" parent="1">
          <mxGeometry x="450" y="460" width="230" height="90" as="geometry" />
        </mxCell>
      </root>
    </mxGraphModel>
  </diagram>
</mxfile>
